<svg style="overflow: hidden; max-width: 100%;" xmlns="http://www.w3.org/2000/svg" width="972px" id="graph-div" height="653px" xmlns:xlink="http://www.w3.org/1999/xlink" xmlns:ev="http://www.w3.org/2001/xml-events"><style>@import url("https://cdnjs.cloudflare.com/ajax/libs/font-awesome/6.2.0/css/all.min.css");'</style><g id="viewport-20221117141050175" class="svg-pan-zoom_viewport" transform="matrix(0.9577579989620187,0,0,0.9577579989620187,-4.788789841584787,90.9931378988218)" style="transform: matrix(0.957758, 0, 0, 0.957758, -4.78879, 90.9931);"><style>#graph-div {font-family:"trebuchet ms",verdana,arial,sans-serif;font-size:16px;fill:#333;}#graph-div .error-icon{fill:#552222;}#graph-div .error-text{fill:#552222;stroke:#552222;}#graph-div .edge-thickness-normal{stroke-width:2px;}#graph-div .edge-thickness-thick{stroke-width:3.5px;}#graph-div .edge-pattern-solid{stroke-dasharray:0;}#graph-div .edge-pattern-dashed{stroke-dasharray:3;}#graph-div .edge-pattern-dotted{stroke-dasharray:2;}#graph-div .marker{fill:#333333;stroke:#333333;}#graph-div .marker.cross{stroke:#333333;}#graph-div svg{font-family:"trebuchet ms",verdana,arial,sans-serif;font-size:16px;}#graph-div .edge{stroke-width:3;}#graph-div .section--1 rect,#graph-div .section--1 path,#graph-div .section--1 circle,#graph-div .section--1 path{fill:hsl(240, 100%, 76.2745098039%);}#graph-div .section--1 text{fill:#ffffff;}#graph-div .node-icon--1{font-size:40px;color:#ffffff;}#graph-div .section-edge--1{stroke:hsl(240, 100%, 76.2745098039%);}#graph-div .edge-depth--1{stroke-width:17;}#graph-div .section--1 line{stroke:hsl(60, 100%, 86.2745098039%);stroke-width:3;}#graph-div .disabled,#graph-div .disabled circle,#graph-div .disabled text{fill:lightgray;}#graph-div .disabled text{fill:#efefef;}#graph-div .section-0 rect,#graph-div .section-0 path,#graph-div .section-0 circle,#graph-div .section-0 path{fill:hsl(60, 100%, 73.5294117647%);}#graph-div .section-0 text{fill:black;}#graph-div .node-icon-0{font-size:40px;color:black;}#graph-div .section-edge-0{stroke:hsl(60, 100%, 73.5294117647%);}#graph-div .edge-depth-0{stroke-width:14;}#graph-div .section-0 line{stroke:hsl(240, 100%, 83.5294117647%);stroke-width:3;}#graph-div .disabled,#graph-div .disabled circle,#graph-div .disabled text{fill:lightgray;}#graph-div .disabled text{fill:#efefef;}#graph-div .section-1 rect,#graph-div .section-1 path,#graph-div .section-1 circle,#graph-div .section-1 path{fill:hsl(80, 100%, 76.2745098039%);}#graph-div .section-1 text{fill:black;}#graph-div .node-icon-1{font-size:40px;color:black;}#graph-div .section-edge-1{stroke:hsl(80, 100%, 76.2745098039%);}#graph-div .edge-depth-1{stroke-width:11;}#graph-div .section-1 line{stroke:hsl(260, 100%, 86.2745098039%);stroke-width:3;}#graph-div .disabled,#graph-div .disabled circle,#graph-div .disabled text{fill:lightgray;}#graph-div .disabled text{fill:#efefef;}#graph-div .section-2 rect,#graph-div .section-2 path,#graph-div .section-2 circle,#graph-div .section-2 path{fill:hsl(270, 100%, 76.2745098039%);}#graph-div .section-2 text{fill:#ffffff;}#graph-div .node-icon-2{font-size:40px;color:#ffffff;}#graph-div .section-edge-2{stroke:hsl(270, 100%, 76.2745098039%);}#graph-div .edge-depth-2{stroke-width:8;}#graph-div .section-2 line{stroke:hsl(90, 100%, 86.2745098039%);stroke-width:3;}#graph-div .disabled,#graph-div .disabled circle,#graph-div .disabled text{fill:lightgray;}#graph-div .disabled text{fill:#efefef;}#graph-div .section-3 rect,#graph-div .section-3 path,#graph-div .section-3 circle,#graph-div .section-3 path{fill:hsl(300, 100%, 76.2745098039%);}#graph-div .section-3 text{fill:black;}#graph-div .node-icon-3{font-size:40px;color:black;}#graph-div .section-edge-3{stroke:hsl(300, 100%, 76.2745098039%);}#graph-div .edge-depth-3{stroke-width:5;}#graph-div .section-3 line{stroke:hsl(120, 100%, 86.2745098039%);stroke-width:3;}#graph-div .disabled,#graph-div .disabled circle,#graph-div .disabled text{fill:lightgray;}#graph-div .disabled text{fill:#efefef;}#graph-div .section-4 rect,#graph-div .section-4 path,#graph-div .section-4 circle,#graph-div .section-4 path{fill:hsl(330, 100%, 76.2745098039%);}#graph-div .section-4 text{fill:black;}#graph-div .node-icon-4{font-size:40px;color:black;}#graph-div .section-edge-4{stroke:hsl(330, 100%, 76.2745098039%);}#graph-div .edge-depth-4{stroke-width:2;}#graph-div .section-4 line{stroke:hsl(150, 100%, 86.2745098039%);stroke-width:3;}#graph-div .disabled,#graph-div .disabled circle,#graph-div .disabled text{fill:lightgray;}#graph-div .disabled text{fill:#efefef;}#graph-div .section-5 rect,#graph-div .section-5 path,#graph-div .section-5 circle,#graph-div .section-5 path{fill:hsl(0, 100%, 76.2745098039%);}#graph-div .section-5 text{fill:black;}#graph-div .node-icon-5{font-size:40px;color:black;}#graph-div .section-edge-5{stroke:hsl(0, 100%, 76.2745098039%);}#graph-div .edge-depth-5{stroke-width:-1;}#graph-div .section-5 line{stroke:hsl(180, 100%, 86.2745098039%);stroke-width:3;}#graph-div .disabled,#graph-div .disabled circle,#graph-div .disabled text{fill:lightgray;}#graph-div .disabled text{fill:#efefef;}#graph-div .section-6 rect,#graph-div .section-6 path,#graph-div .section-6 circle,#graph-div .section-6 path{fill:hsl(30, 100%, 76.2745098039%);}#graph-div .section-6 text{fill:black;}#graph-div .node-icon-6{font-size:40px;color:black;}#graph-div .section-edge-6{stroke:hsl(30, 100%, 76.2745098039%);}#graph-div .edge-depth-6{stroke-width:-4;}#graph-div .section-6 line{stroke:hsl(210, 100%, 86.2745098039%);stroke-width:3;}#graph-div .disabled,#graph-div .disabled circle,#graph-div .disabled text{fill:lightgray;}#graph-div .disabled text{fill:#efefef;}#graph-div .section-7 rect,#graph-div .section-7 path,#graph-div .section-7 circle,#graph-div .section-7 path{fill:hsl(90, 100%, 76.2745098039%);}#graph-div .section-7 text{fill:black;}#graph-div .node-icon-7{font-size:40px;color:black;}#graph-div .section-edge-7{stroke:hsl(90, 100%, 76.2745098039%);}#graph-div .edge-depth-7{stroke-width:-7;}#graph-div .section-7 line{stroke:hsl(270, 100%, 86.2745098039%);stroke-width:3;}#graph-div .disabled,#graph-div .disabled circle,#graph-div .disabled text{fill:lightgray;}#graph-div .disabled text{fill:#efefef;}#graph-div .section-8 rect,#graph-div .section-8 path,#graph-div .section-8 circle,#graph-div .section-8 path{fill:hsl(150, 100%, 76.2745098039%);}#graph-div .section-8 text{fill:black;}#graph-div .node-icon-8{font-size:40px;color:black;}#graph-div .section-edge-8{stroke:hsl(150, 100%, 76.2745098039%);}#graph-div .edge-depth-8{stroke-width:-10;}#graph-div .section-8 line{stroke:hsl(330, 100%, 86.2745098039%);stroke-width:3;}#graph-div .disabled,#graph-div .disabled circle,#graph-div .disabled text{fill:lightgray;}#graph-div .disabled text{fill:#efefef;}#graph-div .section-9 rect,#graph-div .section-9 path,#graph-div .section-9 circle,#graph-div .section-9 path{fill:hsl(180, 100%, 76.2745098039%);}#graph-div .section-9 text{fill:black;}#graph-div .node-icon-9{font-size:40px;color:black;}#graph-div .section-edge-9{stroke:hsl(180, 100%, 76.2745098039%);}#graph-div .edge-depth-9{stroke-width:-13;}#graph-div .section-9 line{stroke:hsl(0, 100%, 86.2745098039%);stroke-width:3;}#graph-div .disabled,#graph-div .disabled circle,#graph-div .disabled text{fill:lightgray;}#graph-div .disabled text{fill:#efefef;}#graph-div .section-10 rect,#graph-div .section-10 path,#graph-div .section-10 circle,#graph-div .section-10 path{fill:hsl(210, 100%, 76.2745098039%);}#graph-div .section-10 text{fill:black;}#graph-div .node-icon-10{font-size:40px;color:black;}#graph-div .section-edge-10{stroke:hsl(210, 100%, 76.2745098039%);}#graph-div .edge-depth-10{stroke-width:-16;}#graph-div .section-10 line{stroke:hsl(30, 100%, 86.2745098039%);stroke-width:3;}#graph-div .disabled,#graph-div .disabled circle,#graph-div .disabled text{fill:lightgray;}#graph-div .disabled text{fill:#efefef;}#graph-div .section-root rect,#graph-div .section-root path,#graph-div .section-root circle{fill:hsl(240, 100%, 46.2745098039%);}#graph-div .section-root text{fill:#ffffff;}#graph-div .icon-container{height:100%;display:flex;justify-content:center;align-items:center;}#graph-div .edge{fill:none;}#graph-div :root{--mermaid-font-family:"trebuchet ms",verdana,arial,sans-serif;}</style><g></g><g></g><g class="mindmap-edges"><path class="edge section-edge--1 edge-depth-1" d="M 328.304977380658,225.78237512552934 L 298.45942412675146,252.34197330189846 L268.6138708728449,278.9015714782676"></path><path class="edge section-edge--1 edge-depth-1" d="M 324.69091229726575,213.49102197402124 L 230.4935222068599,198.74724338070138 L136.29613211645406,184.00346478738146"></path><path class="edge section-edge--1 edge-depth-2" d="M 383.59099589228333,120.41653399573144 L 360.6557621059709,87.58365958924084 L337.72052831965846,54.75078518275025"></path><path class="edge section-edge--1 edge-depth-1" d="M 347.5408578447347,203.14120651662694 L 365.8456996056662,174.2619975944725 L384.1505413665977,145.38278867231804"></path><path class="edge section-edge--1 edge-depth-0" d="M 443.473766574314,272.02266384869336 L 398.08950595638805,247.48377203096715 L352.7052453384621,222.94488021324096"></path><path class="edge section-edge-0 edge-depth-2" d="M 808.4448453604706,174.77355355524702 L 855.9109966038967,150.7859619251756 L903.3771478473228,126.79837029510419"></path><path class="edge section-edge-0 edge-depth-1" d="M 659.6308969806751,232.423079138296 L 720.3233067138071,209.61902930134815 L781.0157164469392,186.8149794644003"></path><path class="edge section-edge-0 edge-depth-0" d="M 471.3198964055174,275.94177012481634 L 551.128934538935,258.4279486218141 L630.9379726723527,240.91412711881185"></path><path class="edge section-edge-1 edge-depth-1" d="M 487.4595611197921,382.9041625029173 L 493.2516837210684,413.1528830366538 L499.04380632234466,443.4016035703903"></path><path class="edge section-edge-1 edge-depth-0" d="M 461.16504184245827,293.4671470929952 L 470.6535471239122,323.6643902465518 L480.1420524053661,353.8616334001084"></path></g><g class="mindmap-nodes"><g transform="translate(404.0591549990563, 260.5030563144105)" class="mindmap-node section-root"><g transform="translate(52.609375, 18.65390625)"><circle r="52.609375" class="node-bkg node-circle" id="node-0"></circle></g><g transform="translate(52.609375, 5)"><text text-anchor="middle" dominant-baseline="middle" alignment-baseline="middle" dy="1em"><tspan dy="1em" x="0">Local   Client</tspan></text></g></g><g transform="translate(282.4167319137198, 197.15667524752382)" class="mindmap-node section-root"><g><path d="M0 32.3078125 v-27.307812499999997 q0,-5 5,-5 h104.1875 q5,0 5,5 v32.3078125 H0 Z" class="node-bkg node-no-border" id="node-1"></path><line y2="37.3078125" x2="114.1875" y1="37.3078125" x1="0" class="node-line--1"></line></g><g transform="translate(57.09375, 5)"><text text-anchor="middle" dominant-baseline="middle" alignment-baseline="middle" dy="1em"><tspan dy="1em" x="0">Build   Profiles</tspan></text></g></g><g transform="translate(206.57242883978313, 270.21945885627315)" class="mindmap-node section-root"><g><path d="M0 32.3078125 v-27.307812499999997 q0,-5 5,-5 h91.671875 q5,0 5,5 v32.3078125 H0 Z" class="node-bkg node-no-border" id="node-2"></path><line y2="37.3078125" x2="101.671875" y1="37.3078125" x1="0" class="node-line--1"></line></g><g transform="translate(50.8359375, 5)"><text text-anchor="middle" dominant-baseline="middle" alignment-baseline="middle" dy="1em"><tspan dy="1em" x="0">KPI   Queries</tspan></text></g></g><g transform="translate(15, 154.22999977681832)" class="mindmap-node section-root"><g><path d="M0 49.90781097412109 v-44.90781097412109 q0,-5 5,-5 h202.953125 q5,0 5,5 v49.90781097412109 H0 Z" class="node-bkg node-no-border" id="node-3"></path><line y2="54.90781097412109" x2="212.953125" y1="54.90781097412109" x1="0" class="node-line--1"></line></g><g transform="translate(106.4765625, 5)"><text text-anchor="middle" dominant-baseline="middle" alignment-baseline="middle" dy="1em"><tspan dy="1em" x="0">Filter   and   Aggregate   Query</tspan><tspan dy="1.1em" x="0">examples</tspan></text></g></g><g transform="translate(325.0949797976126, 114.05950744142115)" class="mindmap-node section-root"><g><path d="M0 32.3078125 v-27.307812499999997 q0,-5 5,-5 h124.171875 q5,0 5,5 v32.3078125 H0 Z" class="node-bkg node-no-border" id="node-4"></path><line y2="37.3078125" x2="134.171875" y1="37.3078125" x1="0" class="node-line--1"></line></g><g transform="translate(67.0859375, 5)"><text text-anchor="middle" dominant-baseline="middle" alignment-baseline="middle" dy="1em"><tspan dy="1em" x="0">Caching   Profiles</tspan></text></g></g><g transform="translate(248.48607566432918, 15)" class="mindmap-node section-root"><g><path d="M0 49.90781097412109 v-44.90781097412109 q0,-5 5,-5 h151.2890625 q5,0 5,5 v49.90781097412109 H0 Z" class="node-bkg node-no-border" id="node-5"></path><line y2="54.90781097412109" x2="161.2890625" y1="54.90781097412109" x1="0" class="node-line--1"></line></g><g transform="translate(80.64453125, 5)"><text text-anchor="middle" dominant-baseline="middle" alignment-baseline="middle" dy="1em"><tspan dy="1em" x="0">Profiles   Daemon   for</tspan><tspan dy="1.1em" x="0">Realtime   Query</tspan></text></g></g><g transform="translate(562.1088703288137, 219.04502842921772)" class="mindmap-node section-0"><g><path d="M0 32.3078125 v-27.307812499999997 q0,-5 5,-5 h156.9609375 q5,0 5,5 v32.3078125 H0 Z" class="node-bkg node-no-border" id="node-6"></path><line y2="37.3078125" x2="166.9609375" y1="37.3078125" x1="0" class="node-line-0"></line></g><g transform="translate(83.48046875, 5)"><text text-anchor="middle" dominant-baseline="middle" alignment-baseline="middle" dy="1em"><tspan dy="1em" x="0">Join   Two   Connection</tspan></text></g></g><g transform="translate(721.1158680988005, 162.88521767347856)" class="mindmap-node section-0"><g><path d="M0 32.3078125 v-27.307812499999997 q0,-5 5,-5 h137.8828125 q5,0 5,5 v32.3078125 H0 Z" class="node-bkg node-no-border" id="node-7"></path><line y2="37.3078125" x2="147.8828125" y1="37.3078125" x1="0" class="node-line-0"></line></g><g transform="translate(73.94140625, 5)"><text text-anchor="middle" dominant-baseline="middle" alignment-baseline="middle" dy="1em"><tspan dy="1em" x="0">CData   Connection</tspan></text></g></g><g transform="translate(823.6592501089929, 101.37889367687262)" class="mindmap-node section-0"><g><path d="M0 32.3078125 v-27.307812499999997 q0,-5 5,-5 h176.2109375 q5,0 5,5 v32.3078125 H0 Z" class="node-bkg node-no-border" id="node-8"></path><line y2="37.3078125" x2="186.2109375" y1="37.3078125" x1="0" class="node-line-0"></line></g><g transform="translate(93.10546875, 5)"><text text-anchor="middle" dominant-baseline="middle" alignment-baseline="middle" dy="1em"><tspan dy="1em" x="0">Reading   From   BigQuery</tspan></text></g></g><g transform="translate(405.67372049876803, 349.51791167869317)" class="mindmap-node section-1"><g><path d="M0 32.3078125 v-27.307812499999997 q0,-5 5,-5 h147.9296875 q5,0 5,5 v32.3078125 H0 Z" class="node-bkg node-no-border" id="node-9"></path><line y2="37.3078125" x2="157.9296875" y1="37.3078125" x1="0" class="node-line-1"></line></g><g transform="translate(78.96484375, 5)"><text text-anchor="middle" dominant-baseline="middle" alignment-baseline="middle" dy="1em"><tspan dy="1em" x="0">Refresh   Datasource</tspan></text></g></g><g transform="translate(394.12261569336874, 439.4800418946145)" class="mindmap-node section-1"><g><path d="M0 32.3078125 v-27.307812499999997 q0,-5 5,-5 h205.484375 q5,0 5,5 v32.3078125 H0 Z" class="node-bkg node-no-border" id="node-10"></path><line y2="37.3078125" x2="215.484375" y1="37.3078125" x1="0" class="node-line-1"></line></g><g transform="translate(107.7421875, 5)"><text text-anchor="middle" dominant-baseline="middle" alignment-baseline="middle" dy="1em"><tspan dy="1em" x="0">Streaming   to   a   Data   Source</tspan></text></g></g></g></g><defs><style id="svg-pan-zoom-controls-styles" type="text/css">.svg-pan-zoom-control { cursor: pointer; fill: black; fill-opacity: 0.333; } .svg-pan-zoom-control:hover { fill-opacity: 0.8; } .svg-pan-zoom-control-background { fill: white; fill-opacity: 0.5; } .svg-pan-zoom-control-background { fill-opacity: 0.8; }</style></defs><g id="svg-pan-zoom-controls" transform="translate(902 577) scale(0.75)" class="svg-pan-zoom-control"><g id="svg-pan-zoom-zoom-in" transform="translate(30.5 5) scale(0.015)" class="svg-pan-zoom-control"><rect x="0" y="0" width="1500" height="1400" class="svg-pan-zoom-control-background"></rect><path d="M1280 576v128q0 26 -19 45t-45 19h-320v320q0 26 -19 45t-45 19h-128q-26 0 -45 -19t-19 -45v-320h-320q-26 0 -45 -19t-19 -45v-128q0 -26 19 -45t45 -19h320v-320q0 -26 19 -45t45 -19h128q26 0 45 19t19 45v320h320q26 0 45 19t19 45zM1536 1120v-960 q0 -119 -84.5 -203.5t-203.5 -84.5h-960q-119 0 -203.5 84.5t-84.5 203.5v960q0 119 84.5 203.5t203.5 84.5h960q119 0 203.5 -84.5t84.5 -203.5z" class="svg-pan-zoom-control-element"></path></g><g id="svg-pan-zoom-reset-pan-zoom" transform="translate(5 35) scale(0.4)" class="svg-pan-zoom-control"><rect x="2" y="2" width="182" height="58" class="svg-pan-zoom-control-background"></rect><path d="M33.051,20.632c-0.742-0.406-1.854-0.609-3.338-0.609h-7.969v9.281h7.769c1.543,0,2.701-0.188,3.473-0.562c1.365-0.656,2.048-1.953,2.048-3.891C35.032,22.757,34.372,21.351,33.051,20.632z" class="svg-pan-zoom-control-element"></path><path d="M170.231,0.5H15.847C7.102,0.5,0.5,5.708,0.5,11.84v38.861C0.5,56.833,7.102,61.5,15.847,61.5h154.384c8.745,0,15.269-4.667,15.269-10.798V11.84C185.5,5.708,178.976,0.5,170.231,0.5z M42.837,48.569h-7.969c-0.219-0.766-0.375-1.383-0.469-1.852c-0.188-0.969-0.289-1.961-0.305-2.977l-0.047-3.211c-0.03-2.203-0.41-3.672-1.142-4.406c-0.732-0.734-2.103-1.102-4.113-1.102h-7.05v13.547h-7.055V14.022h16.524c2.361,0.047,4.178,0.344,5.45,0.891c1.272,0.547,2.351,1.352,3.234,2.414c0.731,0.875,1.31,1.844,1.737,2.906s0.64,2.273,0.64,3.633c0,1.641-0.414,3.254-1.242,4.84s-2.195,2.707-4.102,3.363c1.594,0.641,2.723,1.551,3.387,2.73s0.996,2.98,0.996,5.402v2.32c0,1.578,0.063,2.648,0.19,3.211c0.19,0.891,0.635,1.547,1.333,1.969V48.569z M75.579,48.569h-26.18V14.022h25.336v6.117H56.454v7.336h16.781v6H56.454v8.883h19.125V48.569z M104.497,46.331c-2.44,2.086-5.887,3.129-10.34,3.129c-4.548,0-8.125-1.027-10.731-3.082s-3.909-4.879-3.909-8.473h6.891c0.224,1.578,0.662,2.758,1.316,3.539c1.196,1.422,3.246,2.133,6.15,2.133c1.739,0,3.151-0.188,4.236-0.562c2.058-0.719,3.087-2.055,3.087-4.008c0-1.141-0.504-2.023-1.512-2.648c-1.008-0.609-2.607-1.148-4.796-1.617l-3.74-0.82c-3.676-0.812-6.201-1.695-7.576-2.648c-2.328-1.594-3.492-4.086-3.492-7.477c0-3.094,1.139-5.664,3.417-7.711s5.623-3.07,10.036-3.07c3.685,0,6.829,0.965,9.431,2.895c2.602,1.93,3.966,4.73,4.093,8.402h-6.938c-0.128-2.078-1.057-3.555-2.787-4.43c-1.154-0.578-2.587-0.867-4.301-0.867c-1.907,0-3.428,0.375-4.565,1.125c-1.138,0.75-1.706,1.797-1.706,3.141c0,1.234,0.561,2.156,1.682,2.766c0.721,0.406,2.25,0.883,4.589,1.43l6.063,1.43c2.657,0.625,4.648,1.461,5.975,2.508c2.059,1.625,3.089,3.977,3.089,7.055C108.157,41.624,106.937,44.245,104.497,46.331z M139.61,48.569h-26.18V14.022h25.336v6.117h-18.281v7.336h16.781v6h-16.781v8.883h19.125V48.569z M170.337,20.14h-10.336v28.43h-7.266V20.14h-10.383v-6.117h27.984V20.14z" class="svg-pan-zoom-control-element"></path></g><g id="svg-pan-zoom-zoom-out" transform="translate(30.5 70) scale(0.015)" class="svg-pan-zoom-control"><rect x="0" y="0" width="1500" height="1400" class="svg-pan-zoom-control-background"></rect><path d="M1280 576v128q0 26 -19 45t-45 19h-896q-26 0 -45 -19t-19 -45v-128q0 -26 19 -45t45 -19h896q26 0 45 19t19 45zM1536 1120v-960q0 -119 -84.5 -203.5t-203.5 -84.5h-960q-119 0 -203.5 84.5t-84.5 203.5v960q0 119 84.5 203.5t203.5 84.5h960q119 0 203.5 -84.5 t84.5 -203.5z" class="svg-pan-zoom-control-element"></path></g></g></svg>